<svg width="21" height="21" viewBox="0 0 21 21" fill="none" xmlns="http://www.w3.org/2000/svg">
<path d="M12.5299 2.02295H5.02995C4.58792 2.02295 4.164 2.19854 3.85144 2.5111C3.53888 2.82367 3.36328 3.24759 3.36328 3.68962V17.0229C3.36328 17.465 3.53888 17.8889 3.85144 18.2015C4.164 18.514 4.58792 18.6896 5.02995 18.6896H15.0299C15.472 18.6896 15.8959 18.514 16.2085 18.2015C16.521 17.8889 16.6966 17.465 16.6966 17.0229V6.18962L12.5299 2.02295Z" stroke="#2563EB" stroke-width="1.66667" stroke-linecap="round" stroke-linejoin="round"/>
<path d="M11.6968 2.02295V5.35628C11.6968 5.79831 11.8724 6.22223 12.1849 6.53479C12.4975 6.84735 12.9214 7.02295 13.3634 7.02295H16.6968" stroke="#2563EB" stroke-width="1.66667" stroke-linecap="round" stroke-linejoin="round"/>
<path d="M8.36344 7.85645H6.69678" stroke="#2563EB" stroke-width="1.66667" stroke-linecap="round" stroke-linejoin="round"/>
<path d="M13.3634 11.1899H6.69678" stroke="#2563EB" stroke-width="1.66667" stroke-linecap="round" stroke-linejoin="round"/>
<path d="M13.3634 14.5229H6.69678" stroke="#2563EB" stroke-width="1.66667" stroke-linecap="round" stroke-linejoin="round"/>
</svg>
