<svg width="18" height="20" viewBox="0 0 18 20" fill="none" xmlns="http://www.w3.org/2000/svg">
<path d="M10.9061 2.72791H4.36237C3.9767 2.72791 3.60683 2.88114 3.33412 3.1539C3.06141 3.42665 2.9082 3.79659 2.9082 4.18233V15.8177C2.9082 16.2035 3.06141 16.5734 3.33412 16.8462C3.60683 17.1189 3.9767 17.2722 4.36237 17.2722H13.0874C13.473 17.2722 13.8429 17.1189 14.1156 16.8462C14.3883 16.5734 14.5415 16.2035 14.5415 15.8177V6.36397L10.9061 2.72791Z" stroke="#2563EB" stroke-width="1.45442" stroke-linecap="round" stroke-linejoin="round"/>
<path d="M10.1787 2.72791V5.63676C10.1787 6.02249 10.3319 6.39243 10.6047 6.66519C10.8775 6.93795 11.2474 7.09118 11.6331 7.09118H14.542" stroke="#2563EB" stroke-width="1.45442" stroke-linecap="round" stroke-linejoin="round"/>
<path d="M5.81641 10.7272H7.27083" stroke="#2563EB" stroke-width="1.45442" stroke-linecap="round" stroke-linejoin="round"/>
<path d="M10.1787 10.7272H11.6331" stroke="#2563EB" stroke-width="1.45442" stroke-linecap="round" stroke-linejoin="round"/>
<path d="M5.81641 13.636H7.27083" stroke="#2563EB" stroke-width="1.45442" stroke-linecap="round" stroke-linejoin="round"/>
<path d="M10.1787 13.636H11.6331" stroke="#2563EB" stroke-width="1.45442" stroke-linecap="round" stroke-linejoin="round"/>
</svg>
