<svg width="17" height="17" viewBox="0 0 17 17" fill="none" xmlns="http://www.w3.org/2000/svg">
<path d="M13.3634 7.02327C13.3634 10.3519 9.67078 13.8186 8.43078 14.8893C8.31526 14.9761 8.17464 15.0231 8.03011 15.0231C7.88558 15.0231 7.74496 14.9761 7.62944 14.8893C6.38944 13.8186 2.69678 10.3519 2.69678 7.02327C2.69678 5.60879 3.25868 4.25223 4.25887 3.25204C5.25907 2.25184 6.61562 1.68994 8.03011 1.68994C9.4446 1.68994 10.8012 2.25184 11.8013 3.25204C12.8015 4.25223 13.3634 5.60879 13.3634 7.02327Z" stroke="#2563EB" stroke-width="1.33333" stroke-linecap="round" stroke-linejoin="round"/>
<path d="M8.03003 9.02295C9.1346 9.02295 10.03 8.12752 10.03 7.02295C10.03 5.91838 9.1346 5.02295 8.03003 5.02295C6.92546 5.02295 6.03003 5.91838 6.03003 7.02295C6.03003 8.12752 6.92546 9.02295 8.03003 9.02295Z" stroke="#2563EB" stroke-width="1.33333" stroke-linecap="round" stroke-linejoin="round"/>
</svg>
