<svg width="49" height="48" viewBox="0 0 49 48" fill="none" xmlns="http://www.w3.org/2000/svg">
<path d="M31.6141 25.7798L34.6441 42.8318C34.6781 43.0326 34.6499 43.2389 34.5634 43.4233C34.4769 43.6076 34.3361 43.7612 34.16 43.8634C33.9839 43.9656 33.7807 44.0116 33.5778 43.9952C33.3748 43.9788 33.1816 43.9009 33.0241 43.7718L25.8641 38.3978C25.5185 38.1396 25.0986 38 24.6671 38C24.2357 38 23.8158 38.1396 23.4701 38.3978L16.2981 43.7698C16.1408 43.8987 15.9479 43.9765 15.7451 43.9929C15.5424 44.0093 15.3395 43.9634 15.1635 43.8615C14.9875 43.7596 14.8467 43.6064 14.76 43.4225C14.6733 43.2385 14.6447 43.0324 14.6781 42.8318L17.7061 25.7798" stroke="#2563EB" stroke-width="4" stroke-linecap="round" stroke-linejoin="round"/>
<path d="M24.6602 28C31.2876 28 36.6602 22.6274 36.6602 16C36.6602 9.37258 31.2876 4 24.6602 4C18.0327 4 12.6602 9.37258 12.6602 16C12.6602 22.6274 18.0327 28 24.6602 28Z" stroke="#2563EB" stroke-width="4" stroke-linecap="round" stroke-linejoin="round"/>
</svg>
