<svg width="18" height="20" viewBox="0 0 18 20" fill="none" xmlns="http://www.w3.org/2000/svg">
<path d="M8.59414 17.1615C12.5499 17.1615 15.7566 13.9552 15.7566 10C15.7566 6.04486 12.5499 2.83856 8.59414 2.83856C4.6384 2.83856 1.43164 6.04486 1.43164 10C1.43164 13.9552 4.6384 17.1615 8.59414 17.1615Z" stroke="#2563EB" stroke-width="1.43229" stroke-linecap="round" stroke-linejoin="round"/>
<path d="M6.50977 7.85157C6.67813 7.37295 7.01046 6.96936 7.44788 6.71228C7.88531 6.4552 8.3996 6.36123 8.89967 6.44701C9.39974 6.53278 9.85332 6.79277 10.1801 7.18092C10.5068 7.56908 10.6857 8.06035 10.6849 8.56772C10.6849 10 8.53646 10.7162 8.53646 10.7162" stroke="#2563EB" stroke-width="1.43229" stroke-linecap="round" stroke-linejoin="round"/>
<path d="M8.5957 13.5807H8.60286" stroke="#2563EB" stroke-width="1.43229" stroke-linecap="round" stroke-linejoin="round"/>
</svg>
